<?xml version="1.0" encoding="UTF-8"?>
<svg width="37px" height="34px" viewBox="0 0 37 34" version="1.1" xmlns="http://www.w3.org/2000/svg" xmlns:xlink="http://www.w3.org/1999/xlink">
    <!-- Generator: Sketch 48.2 (47327) - http://www.bohemiancoding.com/sketch -->
    <title>cogs</title>
    <desc>Created with Sketch.</desc>
    <defs></defs>
    <g id="Index" stroke="none" stroke-width="1" fill="none" fill-rule="evenodd" transform="translate(-840.000000, -1777.000000)" opacity="0.600000024">
        <g id="Group-3" transform="translate(840.000000, 1777.000000)" fill="#000000" fill-rule="nonzero">
            <g id="iconmonstr-gear-11">
                <g id="cogs">
                    <path d="M26.2083333,14.9059091 L26.2083333,11.3668182 C24.4045833,10.7223636 23.268375,10.5430909 22.6933333,9.15527273 C22.1182917,7.76436364 22.80125,6.81854545 23.6183333,5.09845455 L21.1239167,2.59636364 C19.420375,3.40772727 18.467625,4.10163636 17.0755,3.52363636 C15.688,2.94718182 15.507625,1.79890909 14.869375,8.8817842e-16 L11.3389583,8.8817842e-16 C10.7037917,1.78963636 10.521875,2.94718182 9.13283333,3.52363636 L9.13129167,3.52363636 C7.74379167,4.10163636 6.803375,3.41545455 5.08441667,2.59636364 L2.59154167,5.09845455 C3.404,6.81390909 4.09158333,7.76281818 3.51654167,9.15527273 C2.93841667,10.5477273 1.78525,10.7300909 -8.8817842e-16,11.3668182 L-8.8817842e-16,14.9043636 C1.780625,15.5410909 2.93995833,15.725 3.515,17.1159091 C4.09466667,18.5191818 3.390125,19.4866364 2.59,21.1727273 L5.08441667,23.6748182 C6.79104167,22.8634545 7.74225,22.1695455 9.13129167,22.7475455 L9.13283333,22.7475455 C10.5203333,23.324 10.70225,24.4753636 11.3389583,26.2711818 L14.8678333,26.2711818 C15.503,24.4815455 15.6849167,23.3270909 17.0832083,22.7444545 L17.08475,22.7444545 C18.463,22.1695455 19.3987917,22.8541818 21.122375,23.6748182 L23.6167917,21.1727273 C22.8074167,19.4619091 22.1152083,18.5099091 22.69025,17.1159091 C23.2668333,15.7265455 24.4261667,15.5410909 26.2083333,14.9059091 Z M13.1041667,17.5161818 C10.693,17.5161818 8.736625,15.555 8.736625,13.1363636 C8.736625,10.7177273 10.693,8.75654545 13.1041667,8.75654545 C15.5153333,8.75654545 17.4717083,10.7177273 17.4717083,13.1363636 C17.4717083,15.555 15.5153333,17.5161818 13.1041667,17.5161818 Z M37,24.0148182 L37,22.3503636 C36.1520833,22.0474545 35.617125,21.9624545 35.3457917,21.3102727 C35.0744583,20.655 35.3966667,20.2114545 35.7805417,19.4000909 L34.6057917,18.2224545 C33.804125,18.6057273 33.3555,18.9302727 32.7018333,18.6598182 C32.0481667,18.3893636 31.963375,17.8484545 31.66275,17.0015455 L30.0039167,17.0015455 C29.7048333,17.8438182 29.6185,18.3878182 28.9648333,18.6598182 C28.3111667,18.9318182 27.8687083,18.6088182 27.060875,18.2224545 L25.886125,19.4000909 C26.2684583,20.2083636 26.5922083,20.655 26.320875,21.3102727 C26.0495417,21.9655455 25.506875,22.0505455 24.6666667,22.3503636 L24.6666667,24.0148182 C25.5053333,24.3130909 26.0495417,24.4011818 26.320875,25.0549091 C26.59375,25.7148182 26.2622917,26.1707273 25.886125,26.9650909 L27.060875,28.1427273 C27.8640833,27.7594545 28.3127083,27.4349091 28.9648333,27.7053636 C29.6185,27.9758182 29.7032917,28.5182727 30.0039167,29.3636364 L31.66275,29.3636364 C31.9618333,28.5213636 32.0481667,27.9773636 32.7049167,27.7038182 L32.7064583,27.7038182 C33.3555,27.4333636 33.794875,27.7563636 34.6057917,28.1427273 L35.7805417,26.9650909 C35.39975,26.1599091 35.0744583,25.7101818 35.3457917,25.0564545 C35.617125,24.4027273 36.1613333,24.3130909 37,24.0148182 Z M30.8333333,25.2419091 C29.6986667,25.2419091 28.7782917,24.3192727 28.7782917,23.1818182 C28.7782917,22.0443636 29.6986667,21.1217273 30.8333333,21.1217273 C31.968,21.1217273 32.888375,22.0443636 32.888375,23.1818182 C32.888375,24.3192727 31.968,25.2419091 30.8333333,25.2419091 Z M24.6666667,29.988 L24.6666667,28.7392727 C24.0315,28.5120909 23.629125,28.4487273 23.425625,27.9588182 C23.222125,27.4689091 23.462625,27.1350909 23.7524583,26.5261818 L22.870625,25.6437273 C22.2709167,25.9311818 21.9348333,26.1753636 21.4430417,25.9713636 C20.95125,25.7673636 20.8895833,25.3624545 20.6629583,24.7272727 L19.4188333,24.7272727 C19.19375,25.3593636 19.129,25.7673636 18.63875,25.9713636 C18.1500417,26.1753636 17.8170417,25.9342727 17.2111667,25.6437273 L16.3293333,26.5261818 C16.617625,27.1335455 16.8596667,27.4673636 16.6561667,27.9588182 C16.4526667,28.4502727 16.0456667,28.5136364 15.415125,28.7392727 L15.415125,29.988 C16.044125,30.2120909 16.4526667,30.2785455 16.6561667,30.7684545 C16.8612083,31.263 16.613,31.6060909 16.3293333,32.2010909 L17.2111667,33.0835455 C17.8124167,32.7960909 18.1485,32.5519091 18.63875,32.7559091 C19.129,32.9599091 19.1922083,33.3663636 19.4188333,34 L20.6629583,34 C20.8880417,33.3679091 20.9527917,32.9599091 21.4445833,32.7559091 L21.446125,32.7559091 C21.93175,32.5534545 22.2616667,32.7945455 22.870625,33.0850909 L23.7524583,32.2026364 C23.4657083,31.5983636 23.222125,31.2614545 23.425625,30.77 C23.629125,30.2785455 24.0376667,30.2120909 24.6666667,29.988 Z M20.0416667,30.9090909 C19.1906667,30.9090909 18.5,30.2182727 18.5,29.3636364 C18.5,28.509 19.1906667,27.8181818 20.0416667,27.8181818 C20.8926667,27.8181818 21.5833333,28.509 21.5833333,29.3636364 C21.5833333,30.2182727 20.8926667,30.9090909 20.0416667,30.9090909 Z" id="Shape"></path>
                </g>
            </g>
        </g>
    </g>
</svg>