<?xml version="1.0" encoding="UTF-8" standalone="no"?>
<svg width="24px" height="24px" viewBox="0 0 24 24" version="1.1" xmlns="http://www.w3.org/2000/svg" xmlns:xlink="http://www.w3.org/1999/xlink">
    <!-- Generator: Sketch 48.1 (47250) - http://www.bohemiancoding.com/sketch -->
    <title>Shape</title>
    <desc>Created with Sketch.</desc>
    <defs></defs>
    <g id="Research" stroke="none" stroke-width="1" fill="none" fill-rule="evenodd" transform="translate(-420.000000, -1547.000000)">
        <g id="Group-8-Copy-4" transform="translate(420.000000, 1547.000000)" fill="#0171BB" fill-rule="nonzero">
            <path d="M11.9978667,23.9957333 C5.38293333,23.9957333 0,18.6136 0,11.9978667 C0,5.38266667 5.38293333,0 11.9978667,0 C18.6138667,0 23.9957333,5.38293333 23.9957333,11.9978667 C23.9957333,18.6136 18.6138667,23.9957333 11.9978667,23.9957333 Z M12.0001381,2 C6.48644842,2 2,6.48629617 2,12.0001381 C2,17.5142561 6.48644842,22 12.0001381,22 C17.51438,22 22,17.5142561 22,12.0001381 C22,6.48602002 17.51438,2 12.0001381,2 Z M11.9994506,18 C11.6906848,18 11.3824685,17.8863277 11.1470483,17.6584518 L7.35313024,13.9901289 C6.88228992,13.5349084 6.88228992,12.7963039 7.35313024,12.3416146 C7.82342114,11.8861285 8.58764387,11.8861285 9.05820948,12.3416146 L11.9994506,15.1855475 L14.9415158,12.3410834 C15.4126308,11.8863941 16.1760294,11.8863941 16.6471444,12.3416146 C17.11771,12.7968351 17.11771,13.5349084 16.646595,13.9901289 L12.8521276,17.6584518 C12.6164327,17.8863277 12.3079416,18 11.9994506,18 Z M12.0002278,18 C11.447938,18 11,17.4586714 11,16.7924632 L11,7.20753679 C11,6.5402283 11.4477102,6 12.0002278,6 C12.5527455,6 13,6.5402283 13,7.20753679 L13,16.7924632 C13,17.4586714 12.5525177,18 12.0002278,18 Z" id="Shape"></path>
        </g>
    </g>
</svg>