<?xml version="1.0" encoding="UTF-8"?>
<svg width="281px" height="149px" viewBox="0 0 281 149" version="1.1" xmlns="http://www.w3.org/2000/svg" xmlns:xlink="http://www.w3.org/1999/xlink">
    <!-- Generator: Sketch 48.2 (47327) - http://www.bohemiancoding.com/sketch -->
    <title>diagramm-logo</title>
    <desc>Created with Sketch.</desc>
    <defs>
        <polygon id="path-1" points="0.318057752 0.756190476 19.5695471 0.756190476 19.5695471 26.1904762 0.318057752 26.1904762"></polygon>
        <polygon id="path-3" points="0 148.809524 280.557574 148.809524 280.557574 0.392857143 0 0.392857143"></polygon>
    </defs>
    <g id="Company" stroke="none" stroke-width="1" fill="none" fill-rule="evenodd" transform="translate(-440.000000, -2250.000000)">
        <g id="diagramm-logo" transform="translate(440.000000, 2250.000000)">
            <g id="Page-1-Copy-2">
                <polygon id="Fill-1" fill="#000000" points="127.069853 125.342466 127.069853 148.972603 134.176248 148.972603 134.176248 141.040809 140.939398 141.040809 140.939398 135.521602 134.176248 135.521602 134.176248 131.126066 142.566176 131.126066 142.566176 125.342466"></polygon>
                <g id="Group-33">
                    <path d="M155.474789,140.875833 C155.474789,142.975833 154.503844,143.909167 152.863283,143.909167 C151.289683,143.909167 150.653546,143.009167 150.653546,141.2425 L150.653546,130.9425 L144.057819,130.9425 L144.057819,142.375833 C144.057819,146.709167 146.568883,148.809167 149.916968,148.809167 C152.863283,148.809167 154.503844,147.5425 155.474789,145.675833 L155.474789,148.375833 L162.070517,148.375833 L162.070517,130.9425 L155.474789,130.9425 L155.474789,140.875833 Z" id="Fill-2" fill="#000000"></path>
                    <path d="M176.935656,130.475476 C173.989341,130.475476 172.114413,131.876667 171.143469,133.742143 L171.143469,130.943333 L164.547741,130.943333 L164.547741,148.375476 L171.143469,148.375476 L171.143469,138.742143 C171.143469,136.643333 172.114413,135.70881 173.754975,135.70881 C175.328575,135.70881 175.964711,136.60881 175.964711,138.376667 L175.964711,148.375476 L182.560439,148.375476 L182.560439,136.90881 C182.560439,132.576667 180.25026,130.475476 176.935656,130.475476" id="Fill-4" fill="#000000"></path>
                    <g id="Group-8" transform="translate(183.816220, 122.619048)">
                        <mask id="mask-2" fill="white">
                            <use xlink:href="#path-1"></use>
                        </mask>
                        <g id="Clip-7"></g>
                        <path d="M13.1412237,17.0907143 C13.1412237,19.7907143 12.0698365,21.1895238 10.0609854,21.1895238 C8.0856152,21.1895238 7.01422796,19.8240476 7.01422796,17.1228571 L7.01422796,16.857381 C7.01422796,14.0895238 8.05213435,12.7240476 10.0944663,12.7240476 C12.1033173,12.7240476 13.1412237,14.1561905 13.1412237,16.8228571 L13.1412237,17.0907143 Z M12.9738195,10.7228571 C12.0028748,8.95738095 10.3957939,7.85619048 7.61688328,7.85619048 C3.63266201,7.85619048 0.318057752,10.8907143 0.318057752,16.957381 L0.318057752,17.2228571 C0.318057752,23.357381 3.69962371,26.1907143 7.61688328,26.1907143 C10.2953514,26.1907143 12.0698365,24.7907143 12.9738195,22.957381 L12.9738195,25.7561905 L19.5695471,25.7561905 L19.5695471,0.756190476 L12.9738195,0.756190476 L12.9738195,10.7228571 Z" id="Fill-6" fill="#000000" mask="url(#mask-2)"></path>
                    </g>
                    <mask id="mask-4" fill="white">
                        <use xlink:href="#path-3"></use>
                    </mask>
                    <g id="Clip-10"></g>
                    <path d="M9.56595745,48.0119048 L47.8297872,48.0119048 L47.8297872,9.91666667 L9.56595745,9.91666667 L9.56595745,48.0119048 Z M0,57.5357143 L57.3957447,57.5357143 L57.3957447,0.392857143 L0,0.392857143 L0,57.5357143 Z" id="Fill-9" fill="#000000" mask="url(#mask-4)"></path>
                    <polygon id="Fill-11" fill="#000000" mask="url(#mask-4)" points="-0.000119575194 71.985119 43.4293272 71.985119 -0.000119575194 110.080357 -0.000119575194 119.604167 57.3956251 119.604167 57.3956251 110.080357 13.8824762 110.080357 57.3956251 71.985119 57.3956251 62.4613095 -0.000119575194 62.4613095"></polygon>
                    <polygon id="Fill-12" fill="#000000" mask="url(#mask-4)" points="63.3884583 57.5354762 120.784203 57.5354762 120.784203 48.0116667 72.9544157 48.0116667 72.9544157 9.91642857 120.784203 9.91642857 120.784203 0.392619048 63.3884583 0.392619048"></polygon>
                    <polygon id="Fill-13" fill="#000000" mask="url(#mask-4)" points="72.9544157 62.4613095 63.3884583 62.4613095 63.3884583 119.604167 120.784203 119.604167 120.784203 110.080357 72.9544157 110.080357"></polygon>
                    <path d="M138.030787,87.8961905 C144.392149,87.8961905 148.945545,84.5961905 149.381991,78.3295238 L141.814123,78.3295238 C141.546277,80.7295238 140.006157,81.8295238 137.863383,81.8295238 C134.917068,81.8295238 133.309987,79.6628571 133.309987,75.6628571 L133.309987,75.3961905 C133.309987,71.3616667 134.950549,69.2295238 137.72946,69.2295238 C139.872234,69.2295238 141.010583,70.4295238 141.244949,72.6616667 L149.080664,72.6616667 C148.543774,66.195 144.124302,63.2628571 137.695979,63.2628571 C130.598038,63.2628571 125.308064,68.0628571 125.308064,75.4283333 L125.308064,75.6961905 C125.308064,82.9961905 129.359247,87.8961905 138.030787,87.8961905" id="Fill-14" fill="#000000" mask="url(#mask-4)"></path>
                    <path d="M166.790001,78.5629762 C166.790001,75.8963095 167.861389,74.4284524 169.836759,74.4284524 C171.846806,74.4284524 172.950478,75.7617857 172.950478,78.5629762 L172.950478,78.8296429 C172.950478,81.495119 171.879091,82.8963095 169.87024,82.8963095 C167.827908,82.8963095 166.790001,81.5296429 166.790001,78.8296429 L166.790001,78.5629762 Z M166.958601,84.9617857 C167.861389,86.6629762 169.704031,87.8963095 172.282057,87.8963095 C176.298563,87.8963095 179.646648,84.9963095 179.646648,78.895119 L179.646648,78.6296429 C179.646648,72.5296429 176.298563,69.5617857 172.314342,69.5617857 C169.635874,69.5617857 167.92835,70.9296429 166.958601,72.5617857 L166.958601,70.0296429 L160.361678,70.0296429 L160.361678,93.2629762 L166.958601,93.2629762 L166.958601,84.9617857 Z" id="Fill-15" fill="#000000" mask="url(#mask-4)"></path>
                    <path d="M187.740046,77.8294048 C187.740046,75.7282143 188.710991,74.7960714 190.352748,74.7960714 C191.925152,74.7960714 192.561289,75.6960714 192.561289,77.4627381 L192.561289,87.4627381 L199.157016,87.4627381 L199.157016,75.9960714 C199.157016,71.6615476 196.846837,69.5627381 193.532233,69.5627381 C190.585918,69.5627381 188.710991,70.9615476 187.740046,72.8294048 L187.740046,62.4627381 L181.144318,62.4627381 L181.144318,87.4627381 L187.740046,87.4627381 L187.740046,77.8294048 Z" id="Fill-16" fill="#000000" mask="url(#mask-4)"></path>
                    <path d="M209.703604,73.7627381 C211.476893,73.7627381 212.348591,74.8960714 212.449034,76.7639286 L206.689131,76.7639286 C206.958174,74.7627381 208.095327,73.7627381 209.703604,73.7627381 M209.703604,87.8960714 C215.294906,87.8960714 218.306987,85.5960714 218.843876,81.5627381 L212.6834,81.5627381 C212.449034,82.5960714 211.812897,83.4294048 209.936774,83.4294048 C208.063042,83.4294048 206.824251,82.3294048 206.656846,80.194881 L218.8092,80.194881 L218.8092,78.5960714 C218.8092,72.3294048 214.624093,69.5294048 209.703604,69.5294048 C204.346668,69.5294048 199.994157,72.9960714 199.994157,78.6960714 L199.994157,78.9627381 C199.994157,84.7294048 204.112302,87.8960714 209.703604,87.8960714" id="Fill-17" fill="#000000" mask="url(#mask-4)"></path>
                    <path d="M226.342511,79.4291667 C226.342511,76.8958333 228.317881,75.6958333 231.967294,75.9291667 L231.967294,69.7958333 C229.322306,69.7625 227.447379,70.8625 226.342511,73.5625 L226.342511,70.0291667 L219.746783,70.0291667 L219.746783,87.4625 L226.342511,87.4625 L226.342511,79.4291667 Z" id="Fill-18" fill="#000000" mask="url(#mask-4)"></path>
                    <path d="M138.733766,103.972262 L138.733766,104.104405 C138.733766,105.872262 137.72934,106.772262 135.687008,106.772262 L134.113408,106.772262 L134.113408,101.405595 L135.720489,101.405595 C137.72934,101.405595 138.733766,102.105595 138.733766,103.972262 Z M126.546736,95.7710714 L126.546736,119.605595 L134.113408,119.605595 L134.113408,111.837738 L136.423587,111.837738 C142.684506,111.837738 145.932149,109.038929 145.932149,104.072262 L145.932149,103.938929 C145.932149,98.8389286 142.952353,95.7710714 136.088778,95.7710714 L126.546736,95.7710714 Z" id="Fill-19" fill="#000000" mask="url(#mask-4)"></path>
                    <path d="M146.836012,102.172619 L146.836012,119.605952 L153.432935,119.605952 L153.432935,111.572619 C153.432935,109.039286 155.40711,107.839286 159.057718,108.071429 L159.057718,101.939286 C156.411535,101.904762 154.536608,103.004762 153.432935,105.705952 L153.432935,102.172619 L146.836012,102.172619 Z" id="Fill-20" fill="#000000" mask="url(#mask-4)"></path>
                    <polygon id="Fill-21" fill="#000000" mask="url(#mask-4)" points="160.362515 119.605952 166.924762 119.605952 166.924762 102.172619 160.362515 102.172619"></polygon>
                    <path d="M186.979791,119.605357 L186.979791,108.13869 C186.979791,103.805357 184.668417,101.705357 181.355009,101.705357 C178.408694,101.705357 176.533766,103.105357 175.562821,104.972024 L175.562821,102.172024 L168.967094,102.172024 L168.967094,119.605357 L175.562821,119.605357 L175.562821,109.972024 C175.562821,107.872024 176.533766,106.93869 178.174328,106.93869 C179.747928,106.93869 180.382868,107.83869 180.382868,109.606548 L180.382868,119.605357 L186.979791,119.605357 Z" id="Fill-22" fill="#000000" mask="url(#mask-4)"></path>
                    <path d="M198.26236,115.198095 C196.119586,115.198095 195.215603,113.764762 195.215603,110.931429 L195.215603,110.663571 C195.215603,107.996905 196.186547,106.664762 198.161917,106.664762 C199.768998,106.664762 200.338173,107.531429 200.572539,108.964762 L206.766496,108.964762 C206.398207,103.498095 202.380505,101.631429 197.994513,101.631429 C192.73802,101.631429 188.520628,104.864762 188.520628,110.798095 L188.520628,111.063571 C188.520628,117.030238 192.605292,119.964762 197.827109,119.964762 C203.719739,119.964762 206.699534,117.098095 206.866939,112.563571 L200.940828,112.563571 C200.773424,114.264762 199.768998,115.198095 198.26236,115.198095" id="Fill-23" fill="#000000" mask="url(#mask-4)"></path>
                    <polygon id="Fill-24" fill="#000000" mask="url(#mask-4)" points="207.837166 119.530952 214.399413 119.530952 214.399413 102.097619 207.837166 102.097619"></polygon>
                    <path d="M229.030545,110.897738 C229.030545,113.563214 227.959157,114.964405 225.951502,114.964405 C223.90917,114.964405 222.871264,113.598929 222.871264,110.897738 L222.871264,110.631071 C222.871264,107.964405 223.941455,106.497738 225.916826,106.497738 C227.925677,106.497738 229.030545,107.831071 229.030545,110.631071 L229.030545,110.897738 Z M228.395604,101.631071 C225.717136,101.631071 224.009613,102.997738 223.037472,104.629881 L223.037472,102.097738 L216.44294,102.097738 L216.44294,125.331071 L223.037472,125.331071 L223.037472,117.029881 C223.941455,118.731071 225.782902,119.964405 228.360928,119.964405 C232.379826,119.964405 235.727911,117.065595 235.727911,110.964405 L235.727911,110.697738 C235.727911,104.597738 232.379826,101.631071 228.395604,101.631071 Z" id="Fill-25" fill="#000000" mask="url(#mask-4)"></path>
                    <polygon id="Fill-26" fill="#000000" mask="url(#mask-4)" points="236.89974 119.530952 243.460791 119.530952 243.460791 94.5309524 236.89974 94.5309524"></polygon>
                    <path d="M254.275465,105.83119 C256.04995,105.83119 256.920452,106.964524 257.020895,108.832381 L251.262189,108.832381 C251.530035,106.83119 252.668384,105.83119 254.275465,105.83119 M254.509831,115.497857 C252.634903,115.497857 251.396112,114.397857 251.228708,112.263333 L263.382257,112.263333 L263.382257,110.664524 C263.382257,104.397857 259.19715,101.597857 254.275465,101.597857 C248.919725,101.597857 244.566018,105.064524 244.566018,110.764524 L244.566018,111.03119 C244.566018,116.797857 248.684163,119.964524 254.275465,119.964524 C259.866767,119.964524 262.880044,117.664524 263.416933,113.63119 L257.255261,113.63119 C257.020895,114.664524 256.385954,115.497857 254.509831,115.497857" id="Fill-27" fill="#000000" mask="url(#mask-4)"></path>
                    <path d="M273.157469,108.264405 C271.183295,108.031071 270.41204,107.731071 270.41204,106.931071 C270.41204,106.264405 270.947733,105.731071 272.153044,105.731071 C273.358354,105.731071 273.894048,106.331071 274.128414,107.364405 L280.05572,107.364405 C279.619274,103.097738 276.639478,101.597738 272.052601,101.597738 C267.767052,101.597738 264.252759,103.497738 264.252759,107.496548 C264.252759,111.231071 266.327376,112.497738 271.048176,113.031071 C273.426512,113.331071 274.128414,113.731071 274.128414,114.497738 C274.128414,115.264405 273.59272,115.729881 272.286967,115.729881 C270.781525,115.729881 270.345078,115.097738 270.110712,113.931071 L264.084159,113.931071 C264.184601,117.897738 267.199074,119.964405 272.321644,119.964405 C277.275614,119.964405 280.556737,118.131071 280.556737,113.831071 C280.556737,110.064405 278.214274,108.896548 273.157469,108.264405" id="Fill-28" fill="#000000" mask="url(#mask-4)"></path>
                    <polygon id="Fill-29" fill="#000000" mask="url(#mask-4)" points="207.887387 100.316667 214.449634 100.316667 214.449634 94.9059524 207.887387 94.9059524"></polygon>
                    <polygon id="Fill-30" fill="#000000" mask="url(#mask-4)" points="160.41154 100.391667 166.973787 100.391667 166.973787 94.9809524 160.41154 94.9809524"></polygon>
                    <polygon id="Fill-31" fill="#000000" mask="url(#mask-4)" points="151.399213 87.4607143 157.96146 87.4607143 157.96146 70.027381 151.399213 70.027381"></polygon>
                    <polygon id="Fill-32" fill="#000000" mask="url(#mask-4)" points="151.399213 68.2464286 157.96146 68.2464286 157.96146 62.8369048 151.399213 62.8369048"></polygon>
                </g>
            </g>
        </g>
    </g>
</svg>