<?xml version="1.0" encoding="UTF-8"?>
<svg width="71px" height="11px" viewBox="0 0 71 11" version="1.1" xmlns="http://www.w3.org/2000/svg" xmlns:xlink="http://www.w3.org/1999/xlink">
    <!-- Generator: Sketch 48.2 (47327) - http://www.bohemiancoding.com/sketch -->
    <title>dolfin</title>
    <desc>Created with Sketch.</desc>
    <defs></defs>
    <g id="Index" stroke="none" stroke-width="1" fill="none" fill-rule="evenodd" transform="translate(-419.000000, -6577.000000)">
        <g id="Group" transform="translate(419.000000, 6562.000000)" fill="#FFFFFF">
            <g id="dolfin" transform="translate(0.000000, 15.000000)">
                <g id="Page-1" transform="translate(0.000000, 0.423077)">
                    <path d="M37.8906373,5.28846154 C37.8906373,8.36597185 35.8539957,9.5798787 34.000562,9.5798787 C32.1460043,9.5798787 30.1093627,8.36597185 30.1093627,5.28846154 C30.1093627,2.21095123 32.1460043,0.99704438 34.000562,0.99704438 C35.8539957,0.99704438 37.8906373,2.21095123 37.8906373,5.28846154 M34.000562,5.92688163e-05 C30.7623918,-0.0138322708 29,2.41611858 29,5.28846154 C29,8.1608045 30.7623918,10.5907553 34.000562,10.5768638 C37.2364842,10.5907553 39,8.1608045 39,5.28846154 C39,2.41611858 37.2364842,-0.0138322708 34.000562,5.92688163e-05" id="Fill-4"></path>
                    <path d="M21.9718826,8.70308771 L19.0705379,8.70308771 L19.0705379,0.912296904 L21.9718826,0.912296904 C23.7278729,0.912296904 25.9294621,1.85115564 25.9294621,4.80769231 C25.9294621,7.76422897 23.7278729,8.70308771 21.9718826,8.70308771 M21.9718826,0 L18,0 L18,9.61538462 L21.9718826,9.61538462 C25.0811736,9.61538462 27,7.5537775 27,4.80769231 C27,2.06160711 25.0811736,0 21.9718826,0" id="Fill-7"></path>
                    <polygon id="Fill-9" points="48 8.70308771 48 9.61538462 42 9.61538462 42 0 43.1810641 0 43.1810641 8.70308771"></polygon>
                    <polygon id="Fill-11" points="58 9.61538462 58.974 9.61538462 58.974 0 58 0"></polygon>
                    <polygon id="Fill-13" points="71 0 71 9.61538462 69.9202283 9.61538462 69.7672796 9.61538462 63.0181357 1.29042937 63.0181357 9.61538462 62 9.61538462 62 0 63.0809131 0 63.2292961 0 69.9818643 8.30145574 69.9818643 0"></polygon>
                    <polygon id="Fill-14" points="50.0750552 0.912296904 50.0750552 3.97814574 54.5673289 3.97814574 54.5673289 4.89044264 50.0750552 4.89044264 50.0750552 9.61538462 49 9.61538462 49 0 55 0 55 0.912296904"></polygon>
                    <path d="M11,5.28792773 C11,9.02887236 8.28702208,10.5769231 5.18546042,10.5769231 L1.46548196,10.5747878 C0.977382876,10.5747878 0,10.2448929 0,9.25307281 C0,8.37335295 0.690683899,8.17264017 1.34345719,7.38046525 C1.90382337,6.70039056 2.13839526,6.0576826 2.13839526,5.28792773 C2.13839526,4.51924047 1.90382337,3.8754649 1.34345719,3.19539021 C0.690683899,2.40428291 0,2.20357013 0,1.32385027 C0,0.332030188 0.977382876,0.00106762118 1.46548196,0.00106762118 L5.18546042,0 C8.28702208,0 11,1.54805072 11,5.28792773" id="Fill-1"></path>
                </g>
            </g>
        </g>
    </g>
</svg>