<?xml version="1.0" encoding="UTF-8"?>
<svg width="101px" height="32px" viewBox="0 0 101 32" version="1.1" xmlns="http://www.w3.org/2000/svg" xmlns:xlink="http://www.w3.org/1999/xlink">
    <!-- Generator: Sketch 47.1 (45422) - http://www.bohemiancoding.com/sketch -->
    <title>Group 2 Copy</title>
    <desc>Created with Sketch.</desc>
    <defs></defs>
    <g id="Page-1" stroke="none" stroke-width="1" fill="none" fill-rule="evenodd">
        <g id="Group-2-Copy" fill="#FFFFFF">
            <path d="M4.50443657,0.772972973 C4.9524325,1.18738946 5.17642711,1.75495135 5.17642711,2.47567568 C5.17642711,3.1964 4.9524325,3.76396189 4.50443657,4.17837838 C4.05644064,4.59279486 3.40895623,4.8 2.56196392,4.8 L0.965986398,4.8 L0.965986398,7.84864865 L0,7.84864865 L0,0.151351351 L2.56196392,0.151351351 C3.40895623,0.151351351 4.05644064,0.358556486 4.50443657,0.772972973 Z M0.965986398,3.93513514 L2.48846496,3.93513514 C3.04845987,3.93513514 3.47019972,3.80720849 3.75369714,3.55135135 C4.03719457,3.29549422 4.17894115,2.93693924 4.17894115,2.47567568 C4.17894115,2.01441211 4.03719457,1.65585714 3.75369714,1.4 C3.47019972,1.14414286 3.04845987,1.01621622 2.48846496,1.01621622 L0.965986398,1.01621622 L0.965986398,3.93513514 Z M11.8963325,0.486486486 C12.4073278,0.810812432 12.8010683,1.27387086 13.0775658,1.87567568 C13.3540633,2.47748049 13.49231,3.18558151 13.49231,4 C13.49231,4.81441849 13.3540633,5.52251951 13.0775658,6.12432432 C12.8010683,6.72612914 12.4073278,7.18918757 11.8963325,7.51351351 C11.3853371,7.83783946 10.7868515,8 10.1008577,8 C9.41486397,8 8.81637838,7.83783946 8.30538302,7.51351351 C7.79438766,7.18918757 7.40064715,6.72612914 7.12414966,6.12432432 C6.84765217,5.52251951 6.7094055,4.81441849 6.7094055,4 C6.7094055,3.18558151 6.84765217,2.47748049 7.12414966,1.87567568 C7.40064715,1.27387086 7.79438766,0.810812432 8.30538302,0.486486486 C8.81637838,0.162160541 9.41486397,0 10.1008577,0 C10.7868515,0 11.3853371,0.162160541 11.8963325,0.486486486 Z M8.83562556,1.28648649 C8.47512883,1.53874 8.19863549,1.89729497 8.00613724,2.36216216 C7.81363899,2.82702935 7.7173913,3.37296984 7.7173913,4 C7.7173913,4.62703016 7.81363899,5.17297065 8.00613724,5.63783784 C8.19863549,6.10270503 8.47512883,6.46126 8.83562556,6.71351351 C9.19612228,6.96576703 9.61786213,7.09189189 10.1008577,7.09189189 C10.5838534,7.09189189 11.0055932,6.96576703 11.3660899,6.71351351 C11.7265867,6.46126 12.00308,6.10270503 12.1955782,5.63783784 C12.3880765,5.17297065 12.4843242,4.62703016 12.4843242,4 C12.4843242,3.37296984 12.3880765,2.82702935 12.1955782,2.36216216 C12.00308,1.89729497 11.7265867,1.53874 11.3660899,1.28648649 C11.0055932,1.03423297 10.5838534,0.908108108 10.1008577,0.908108108 C9.61786213,0.908108108 9.19612228,1.03423297 8.83562556,1.28648649 Z M20.9787045,7.84864865 L20.1912156,4.48648649 C19.9042182,3.26846238 19.6452245,2.11892432 19.4142266,1.03783784 L19.3932269,1.03783784 C19.162229,2.11892432 18.9032352,3.26846238 18.6162378,4.48648649 L17.8287489,7.84864865 L16.4427684,7.84864865 L14.699793,0.151351351 L15.6657794,0.151351351 L16.3692694,3.26486486 C16.530268,3.99279643 16.7647623,5.08467741 17.0727595,6.54054054 L17.1462585,6.88648649 L17.1672582,6.88648649 C17.4822554,5.43062335 17.7587487,4.21982465 17.9967465,3.25405405 L18.7317362,0.151351351 L20.0757173,0.151351351 L20.8107069,3.25405405 C21.0487047,4.21982465 21.3251981,5.43062335 21.6401952,6.88648649 L21.6611949,6.88648649 C21.878193,5.79819276 22.1371867,4.59099762 22.438184,3.26486486 L23.1416741,0.151351351 L24.1076605,0.151351351 L22.364685,7.84864865 L20.9787045,7.84864865 Z M26.7536232,1.03783784 L26.7536232,3.47027027 L30.386572,3.47027027 L30.386572,4.34594595 L26.7536232,4.34594595 L26.7536232,6.96216216 L30.7225673,6.96216216 L30.7225673,7.84864865 L25.7876368,7.84864865 L25.7876368,0.151351351 L30.6070689,0.151351351 L30.6070689,1.03783784 L26.7536232,1.03783784 Z M37.3059746,0.691891892 C37.7399706,1.05225405 37.9569654,1.56756422 37.9569654,2.23783784 C37.9569654,2.72793038 37.8274685,3.14594422 37.5684709,3.49189189 C37.3094732,3.83783957 36.9629816,4.06126076 36.5289855,4.16216216 L36.5289855,4.18378378 C36.801983,4.2702707 37.0154779,4.41441341 37.1694765,4.61621622 C37.3234751,4.81801903 37.4844712,5.15675438 37.6524697,5.63243243 L38.4189589,7.84864865 L37.3689737,7.84864865 L36.6864833,5.81621622 C36.5324847,5.35495265 36.352239,5.0378387 36.1457409,4.86486486 C35.9392428,4.69189103 35.6365001,4.60540541 35.2375037,4.60540541 L33.9250222,4.60540541 L33.9250222,7.84864865 L32.9590358,7.84864865 L32.9590358,0.151351351 L35.3320024,0.151351351 C36.2139944,0.151351351 36.8719785,0.33152973 37.3059746,0.691891892 Z M33.9250222,3.76216216 L35.3215025,3.76216216 C35.8814974,3.76216216 36.2962375,3.63063195 36.565735,3.36756757 C36.8352326,3.10450319 36.9699793,2.75315535 36.9699793,2.31351351 C36.9699793,1.44143708 36.3994931,1.00540541 35.2585034,1.00540541 L33.9250222,1.00540541 L33.9250222,3.76216216 Z M41.3274179,1.03783784 L41.3274179,3.47027027 L44.9603668,3.47027027 L44.9603668,4.34594595 L41.3274179,4.34594595 L41.3274179,6.96216216 L45.296362,6.96216216 L45.296362,7.84864865 L40.3614315,7.84864865 L40.3614315,0.151351351 L45.1808637,0.151351351 L45.1808637,1.03783784 L41.3274179,1.03783784 Z M52.6777581,1.15135135 C53.349752,1.81802135 53.6857439,2.76756141 53.6857439,4 C53.6857439,5.23243859 53.349752,6.18197865 52.6777581,6.84864865 C52.0057642,7.51531865 51.0502872,7.84864865 49.8112984,7.84864865 L47.5328305,7.84864865 L47.5328305,0.151351351 L49.8112984,0.151351351 C51.0502872,0.151351351 52.0057642,0.484681351 52.6777581,1.15135135 Z M48.4988169,6.96216216 L49.8007986,6.96216216 C50.7317901,6.96216216 51.442273,6.70991243 51.9322686,6.20540541 C52.4222641,5.70089838 52.6672582,4.96577059 52.6672582,4 C52.6672582,3.03422941 52.4222641,2.29910162 51.9322686,1.79459459 C51.442273,1.29008757 50.7317901,1.03783784 49.8007986,1.03783784 L48.4988169,1.03783784 L48.4988169,6.96216216 Z M63.2248595,0.675675676 C63.6483557,1.02522697 63.8601006,1.50269968 63.8601006,2.10810811 C63.8601006,2.5405427 63.7551031,2.90990838 63.545105,3.21621622 C63.3351069,3.52252405 63.0271143,3.75135059 62.621118,3.9027027 L62.621118,3.92432432 C63.0691139,4.03243297 63.4156056,4.24324168 63.6606034,4.55675676 C63.9056011,4.87027184 64.0280982,5.26125892 64.0280982,5.72972973 C64.0280982,6.37838162 63.8076035,6.89369178 63.3666075,7.27567568 C62.9256115,7.65765957 62.3166262,7.84864865 61.5396332,7.84864865 L58.9041704,7.84864865 L58.9041704,0.151351351 L61.340136,0.151351351 C62.1731285,0.151351351 62.8013634,0.326124378 63.2248595,0.675675676 Z M59.8701567,3.51351351 L61.2666371,3.51351351 C62.3586272,3.51351351 62.904614,3.09189611 62.904614,2.24864865 C62.904614,1.83062854 62.7768671,1.51711816 62.5213694,1.30810811 C62.2658717,1.09909805 61.8616315,0.994594595 61.3086365,0.994594595 L59.8701567,0.994594595 L59.8701567,3.51351351 Z M59.8701567,7.00540541 L61.4031352,7.00540541 C62.4881253,7.00540541 63.0306122,6.56216659 63.0306122,5.67567568 C63.0306122,4.78918476 62.4426264,4.34594595 61.2666371,4.34594595 L59.8701567,4.34594595 L59.8701567,7.00540541 Z M68.301538,7.84864865 L67.3355516,7.84864865 L67.3355516,4.65945946 L64.6370896,0.151351351 L65.7605738,0.151351351 L66.6740609,1.74054054 C67.0310577,2.36036346 67.4090486,3.03783416 67.8080449,3.77297297 L67.8290447,3.77297297 C68.228041,3.03783416 68.6060319,2.36036346 68.9630287,1.74054054 L69.8870157,0.151351351 L71,0.151351351 L68.301538,4.65945946 L68.301538,7.84864865 Z" id="Powered-by"></path>
            <path d="M54.3029078,23.9655579 L54.3029078,23.9653708 C54.3029078,19.3322012 51.3975033,17.5050199 48.7521228,17.5050199 C46.1068355,17.5050199 43.201431,19.3322012 43.201431,23.9653708 L43.201431,23.9655579 C43.201431,28.5987275 46.1068355,30.4261895 48.7521228,30.4261895 C51.3975033,30.4261895 54.3029078,28.5987275 54.3029078,23.9655579 Z M48.7521228,16.004014 C53.3705334,15.9823064 55.8858086,19.6402246 55.8858086,23.9653708 L55.8858086,23.9655579 C55.8858086,28.290517 53.3705334,31.9488094 48.7521228,31.9271018 C44.1338054,31.9488094 41.6186235,28.290517 41.6186235,23.9655579 L41.6186235,23.9653708 C41.6186235,19.6402246 44.1338054,15.9823064 48.7521228,16.004014 Z" id="Fill-1"></path>
            <path d="M31.6012546,30.0605848 L27.2646921,30.0605848 L27.2646921,17.7920468 L31.6012546,17.7920468 C34.159805,17.7920468 37.3687885,19.2711579 37.3687885,23.9262222 C37.3687885,28.5813801 34.159805,30.0605848 31.6012546,30.0605848 M31.6012546,16.3562573 L25.7036154,16.3562573 L25.7036154,31.4962807 L31.6012546,31.4962807 C36.1329284,31.4962807 38.9299585,28.2511813 38.9299585,23.9262222 C38.9299585,19.6011696 36.1329284,16.3562573 31.6012546,16.3562573" id="Fill-3"></path>
            <polygon id="Fill-5" points="67.0063209 30.0605848 67.0063209 31.4962807 59.0787598 31.4962807 59.0787598 16.3562573 60.6398365 16.3562573 60.6398365 30.0605848"></polygon>
            <polygon id="Fill-7" points="81.8751986 31.4961404 83.4362753 31.4961404 83.4362753 16.356117 81.8751986 16.356117"></polygon>
            <polygon id="Fill-9" points="100.581865 16.356276 100.581865 31.4962994 99.0641564 31.4962994 98.8494594 31.4962994 89.3684693 18.3874339 89.3684693 31.4962994 87.9374047 31.4962994 87.9374047 16.3561825 89.4551129 16.3561825 89.6650534 16.3561825 99.1508 29.4283696 99.1508 16.356276"></polygon>
            <polygon id="Fill-10" points="71.4586538 17.7920374 71.4586538 22.6210433 77.9851817 22.6210433 77.9851817 24.0568327 71.4586538 24.0568327 71.4586538 31.4962713 69.8975771 31.4962713 69.8975771 16.356248 78.6139772 16.356248 78.6139772 17.7920374"></polygon>
            <path d="M14.8796592,23.9633216 C14.8796592,29.5970994 11.2095715,31.9271111 7.01421284,31.9271111 L1.98217008,31.9249591 C1.32147781,31.9249591 0,31.427462 0,29.9341287 C0,28.6094971 0.933866703,28.3064327 1.81671722,27.1144795 C2.57571125,26.0905731 2.8922541,25.1219649 2.8922541,23.9633216 C2.8922541,22.8052398 2.57571125,21.8366316 1.81671722,20.8121637 C0.933866703,19.6206784 0,19.3177076 0,17.9929825 C0,16.4995556 1.32147781,16.0022456 1.98217008,16.0022456 L7.01421284,16 C11.2095715,16 14.8796592,18.3300117 14.8796592,23.9633216" id="Fill-11"></path>
        </g>
    </g>
</svg>