<?xml version="1.0" encoding="UTF-8" standalone="no"?>
<svg width="211px" height="113px" viewBox="0 0 211 113" version="1.1" xmlns="http://www.w3.org/2000/svg" xmlns:xlink="http://www.w3.org/1999/xlink">
    <!-- Generator: Sketch 48.2 (47327) - http://www.bohemiancoding.com/sketch -->
    <title>logo</title>
    <desc>Created with Sketch.</desc>
    <defs></defs>
    <g id="Page-1" stroke="none" stroke-width="1" fill="none" fill-rule="evenodd">
        <g id="logo">
            <g id="Group-33" fill="#000000" fill-rule="nonzero">
                <polygon id="Fill-1" points="95 94 95 112 100.50303 112 100.50303 105.958042 105.74026 105.958042 105.74026 101.753846 100.50303 101.753846 100.50303 98.4055944 107 98.4055944 107 94"></polygon>
                <path d="M116.744414,106.126461 C116.744414,107.708461 116.015342,108.411572 114.783461,108.411572 C113.601861,108.411572 113.124193,107.733572 113.124193,106.402683 L113.124193,98.64335 L108.171529,98.64335 L108.171529,107.256461 C108.171529,110.520906 110.057061,112.102906 112.571104,112.102906 C114.783461,112.102906 116.015342,111.148683 116.744414,109.742461 L116.744414,111.776461 L121.697078,111.776461 L121.697078,98.64335 L116.744414,98.64335 L116.744414,106.126461 Z" id="Fill-2"></path>
                <path d="M132.859158,98.2915254 C130.6468,98.2915254 129.238937,99.3470889 128.509864,100.752414 L128.509864,98.6439778 L123.5572,98.6439778 L123.5572,111.776192 L128.509864,111.776192 L128.509864,104.519081 C128.509864,102.937978 129.238937,102.23397 130.470817,102.23397 C131.652417,102.23397 132.130086,102.91197 132.130086,104.243756 L132.130086,111.776192 L137.082749,111.776192 L137.082749,103.13797 C137.082749,99.8744222 135.34806,98.2915254 132.859158,98.2915254" id="Fill-4"></path>
                <path d="M147.893312,105.248021 C147.893312,107.282021 147.088818,108.335791 145.580393,108.335791 C144.097108,108.335791 143.292614,107.307132 143.292614,105.272235 L143.292614,105.072243 C143.292614,102.987124 144.071967,101.958465 145.605533,101.958465 C147.113959,101.958465 147.893312,103.037346 147.893312,105.046235 L147.893312,105.248021 Z M147.76761,100.450902 C147.038537,99.1209097 145.831797,98.2913462 143.745142,98.2913462 C140.753431,98.2913462 138.264529,100.577354 138.264529,105.147576 L138.264529,105.347568 C138.264529,109.96891 140.803712,112.103354 143.745142,112.103354 C145.756376,112.103354 147.088818,111.048687 147.76761,109.667576 L147.76761,111.776013 L152.720273,111.776013 L152.720273,92.9426795 L147.76761,92.9426795 L147.76761,100.450902 Z" id="Fill-6"></path>
                <polygon id="Fill-11" points="-8.9787234e-05 54.2287897 32.6106336 54.2287897 -8.9787234e-05 82.9272024 -8.9787234e-05 90.1018056 43.0977826 90.1018056 43.0977826 82.9272024 10.4242081 82.9272024 43.0977826 54.2287897 43.0977826 47.0541865 -8.9787234e-05 47.0541865"></polygon>
                <polygon id="Fill-12" points="47.5977391 43.3433921 90.6956115 43.3433921 90.6956115 36.1687889 54.7807179 36.1687889 54.7807179 7.47037619 90.6956115 7.47037619 90.6956115 0.295773016 47.5977391 0.295773016"></polygon>
                <polygon id="Fill-13" points="54.7807179 47.0541865 47.5977391 47.0541865 47.5977391 90.1018056 90.6956115 90.1018056 90.6956115 82.9272024 54.7807179 82.9272024"></polygon>
                <path d="M103.645894,66.2151302 C108.422574,66.2151302 111.841672,63.7291302 112.169396,59.0082413 L106.486762,59.0082413 C106.285638,60.8162413 105.129179,61.6449079 103.520191,61.6449079 C101.307834,61.6449079 100.101094,60.0126857 100.101094,56.9993524 L100.101094,56.7984635 C100.101094,53.7591222 101.332974,52.1529079 103.41963,52.1529079 C105.028617,52.1529079 105.883391,53.0569079 106.059374,54.7384556 L111.943132,54.7384556 C111.539987,49.8669 108.221451,47.658019 103.394489,47.658019 C98.0647191,47.658019 94.0925319,51.274019 94.0925319,56.8226778 L94.0925319,57.0244635 C94.0925319,62.5237968 97.1345234,66.2151302 103.645894,66.2151302" id="Fill-14"></path>
                <path d="M125.240891,59.1841087 C125.240891,57.1752198 126.045384,56.0694341 127.528669,56.0694341 C129.037993,56.0694341 129.866729,57.0738786 129.866729,59.1841087 L129.866729,59.3849976 C129.866729,61.3929897 129.062235,62.4485532 127.55381,62.4485532 C126.020244,62.4485532 125.240891,61.4189976 125.240891,59.3849976 L125.240891,59.1841087 Z M125.367491,64.0045452 C126.045384,65.2861087 127.429006,66.2152198 129.364818,66.2152198 C132.380771,66.2152198 134.894814,64.0305532 134.894814,59.434323 L134.894814,59.234331 C134.894814,54.6389976 132.380771,52.4032119 129.389061,52.4032119 C127.377827,52.4032119 126.095665,53.4336643 125.367491,54.6632119 L125.367491,52.7556643 L120.413929,52.7556643 L120.413929,70.2581087 L125.367491,70.2581087 L125.367491,64.0045452 Z" id="Fill-15"></path>
                <path d="M140.972063,58.6314849 C140.972063,57.0485881 141.701135,56.3463738 142.933914,56.3463738 C144.114616,56.3463738 144.592284,57.0243738 144.592284,58.3552627 L144.592284,65.888596 L149.544948,65.888596 L149.544948,57.2503738 C149.544948,53.9850325 147.810259,52.4039294 145.321357,52.4039294 C143.108999,52.4039294 141.701135,53.4576992 140.972063,54.8648183 L140.972063,47.0552627 L136.019399,47.0552627 L136.019399,65.888596 L140.972063,65.888596 L140.972063,58.6314849 Z" id="Fill-16"></path>
                <path d="M157.464272,55.5679294 C158.795817,55.5679294 159.450366,56.4217071 159.525787,57.8288262 L155.200736,57.8288262 C155.402757,56.3212627 156.256634,55.5679294 157.464272,55.5679294 M157.464272,66.2150405 C161.662723,66.2150405 163.924463,64.4823738 164.327608,61.4439294 L159.70177,61.4439294 C159.525787,62.2223738 159.048119,62.8501516 157.639357,62.8501516 C156.232391,62.8501516 155.302195,62.0214849 155.176493,60.413477 L164.30157,60.413477 L164.30157,59.2090405 C164.30157,54.4881516 161.159017,52.3788183 157.464272,52.3788183 C153.441804,52.3788183 150.173549,54.9903738 150.173549,59.2843738 L150.173549,59.4852627 C150.173549,63.8294849 153.265821,66.2150405 157.464272,66.2150405" id="Fill-17"></path>
                <path d="M169.958255,59.8366389 C169.958255,57.9281944 171.44154,57.0241944 174.181847,57.1999722 L174.181847,52.5795278 C172.195753,52.5544167 170.787889,53.3830833 169.958255,55.4170833 L169.958255,52.7553056 L165.005591,52.7553056 L165.005591,65.8884167 L169.958255,65.8884167 L169.958255,59.8366389 Z" id="Fill-18"></path>
                <path d="M104.173753,78.3257706 L104.173753,78.4253183 C104.173753,79.757104 103.41954,80.435104 101.885974,80.435104 L100.704374,80.435104 L100.704374,76.3922151 L101.911114,76.3922151 C103.41954,76.3922151 104.173753,76.9195484 104.173753,78.3257706 Z M95.0226379,72.1475405 L95.0226379,90.1028817 L100.704374,90.1028817 L100.704374,84.251096 L102.439063,84.251096 C107.140323,84.251096 109.578944,82.1426595 109.578944,78.401104 L109.578944,78.3006595 C109.578944,74.4586595 107.341446,72.1475405 102.187659,72.1475405 L95.0226379,72.1475405 Z" id="Fill-19"></path>
                <path d="M110.257646,76.9700397 L110.257646,90.1031508 L115.211208,90.1031508 L115.211208,84.051373 C115.211208,82.1429286 116.693595,81.2389286 119.434799,81.4138095 L119.434799,76.7942619 C117.447808,76.768254 116.039944,77.5969206 115.211208,79.6318175 L115.211208,76.9700397 L110.257646,76.9700397 Z" id="Fill-20"></path>
                <polygon id="Fill-21" points="120.414557 90.1031508 125.342081 90.1031508 125.342081 76.9700397 120.414557 76.9700397"></polygon>
                <path d="M140.401196,90.1027024 L140.401196,81.4644802 C140.401196,78.2000357 138.665609,76.6180357 136.177604,76.6180357 C133.965247,76.6180357 132.557383,77.6727024 131.828311,79.0789246 L131.828311,76.9695913 L126.875647,76.9695913 L126.875647,90.1027024 L131.828311,90.1027024 L131.828311,82.8455913 C131.828311,81.2635913 132.557383,80.5604802 133.789264,80.5604802 C134.970864,80.5604802 135.447634,81.2384802 135.447634,82.5702659 L135.447634,90.1027024 L140.401196,90.1027024 Z" id="Fill-22"></path>
                <path d="M148.87316,86.7825651 C147.264173,86.7825651 146.585381,85.7027873 146.585381,83.5683429 L146.585381,83.3665571 C146.585381,81.3576683 147.314454,80.3541206 148.797739,80.3541206 C150.004479,80.3541206 150.431866,81.0070095 150.607849,82.0867873 L155.258828,82.0867873 C154.982283,77.9685651 151.965432,76.5623429 148.672037,76.5623429 C144.72499,76.5623429 141.558194,78.9981206 141.558194,83.4678984 L141.558194,83.6678905 C141.558194,88.1627794 144.625326,90.373454 148.546334,90.373454 C152.971049,90.373454 155.208547,88.2138984 155.334249,84.7978905 L150.884394,84.7978905 C150.758692,86.079454 150.004479,86.7825651 148.87316,86.7825651" id="Fill-23"></path>
                <polygon id="Fill-24" points="156.062783 90.0466508 160.990306 90.0466508 160.990306 76.9135397 156.062783 76.9135397"></polygon>
                <path d="M171.976672,83.5429627 C171.976672,85.5509548 171.172179,86.6065183 169.664651,86.6065183 C168.131085,86.6065183 167.351732,85.5778595 167.351732,83.5429627 L167.351732,83.3420738 C167.351732,81.3331849 168.155328,80.228296 169.638613,80.228296 C171.147038,80.228296 171.976672,81.2327405 171.976672,83.3420738 L171.976672,83.5429627 Z M171.499902,76.5620738 C169.488668,76.5620738 168.206506,77.5916294 167.476536,78.821177 L167.476536,76.9136294 L162.52477,76.9136294 L162.52477,94.4160738 L167.476536,94.4160738 L167.476536,88.1625103 C168.155328,89.4440738 169.538051,90.3731849 171.473864,90.3731849 C174.491613,90.3731849 177.005655,88.1894151 177.005655,83.5931849 L177.005655,83.392296 C177.005655,78.7969627 174.491613,76.5620738 171.499902,76.5620738 Z" id="Fill-25"></path>
                <polygon id="Fill-26" points="177.88557 90.0466508 182.812196 90.0466508 182.812196 71.2133175 177.88557 71.2133175"></polygon>
                <path d="M190.932823,79.7261635 C192.265265,79.7261635 192.918916,80.5799413 192.994337,81.9870603 L188.670184,81.9870603 C188.871308,80.4794968 189.726082,79.7261635 190.932823,79.7261635 M191.108806,87.0083857 C189.700942,87.0083857 188.770746,86.179719 188.645044,84.5717111 L197.771018,84.5717111 L197.771018,83.3672746 C197.771018,78.6463857 194.628465,76.5370524 190.932823,76.5370524 C186.911252,76.5370524 183.642099,79.1486079 183.642099,83.4426079 L183.642099,83.6434968 C183.642099,87.987719 186.734371,90.3732746 190.932823,90.3732746 C195.131274,90.3732746 197.393912,88.6406079 197.797057,85.6021635 L193.17032,85.6021635 C192.994337,86.3806079 192.517567,87.0083857 191.108806,87.0083857" id="Fill-27"></path>
                <path d="M205.111125,81.5591849 C203.628737,81.3834071 203.04961,81.1574071 203.04961,80.5547405 C203.04961,80.0525183 203.451857,79.6507405 204.356912,79.6507405 C205.261967,79.6507405 205.664214,80.1027405 205.840197,80.8811849 L210.29095,80.8811849 C209.963227,77.6669627 207.725729,76.5369627 204.281491,76.5369627 C201.063516,76.5369627 198.424669,77.968296 198.424669,80.9807325 C198.424669,83.7940738 199.982478,84.748296 203.527278,85.1500738 C205.313146,85.3760738 205.840197,85.6774071 205.840197,86.2549627 C205.840197,86.8325183 205.43795,87.183177 204.457474,87.183177 C203.327052,87.183177 202.999329,86.7069627 202.823346,85.8280738 L198.298069,85.8280738 C198.373491,88.816296 200.637027,90.3731849 204.483512,90.3731849 C208.203397,90.3731849 210.667159,88.9920738 210.667159,85.7527405 C210.667159,82.9151849 208.908227,82.0353992 205.111125,81.5591849" id="Fill-28"></path>
                <polygon id="Fill-29" points="156.100494 75.5718889 161.028017 75.5718889 161.028017 71.4958175 156.100494 71.4958175"></polygon>
                <polygon id="Fill-30" points="120.45137 75.6283889 125.378894 75.6283889 125.378894 71.5523175 120.45137 71.5523175"></polygon>
                <polygon id="Fill-31" points="113.684106 65.8870714 118.61163 65.8870714 118.61163 52.7539603 113.684106 52.7539603"></polygon>
                <polygon id="Fill-32" points="113.684106 51.4123095 118.61163 51.4123095 118.61163 47.3371349 113.684106 47.3371349"></polygon>
            </g>
            <g id="Group" transform="translate(2.000000, 2.000000)" stroke="#000000" stroke-linecap="square" stroke-width="7">
                <path d="M1.5,1.8 L1.5,37.8" id="Line"></path>
                <path d="M37.6,1.8 L37.6,37.8" id="Line"></path>
                <path d="M1.5,1.5 L37.5,1.5" id="Line-2"></path>
                <path d="M1.5,37.8 L37.5,37.8" id="Line-2"></path>
            </g>
        </g>
    </g>
</svg>