<svg width="281" height="149" viewBox="0 0 281 149" xmlns="http://www.w3.org/2000/svg" xmlns:xlink="http://www.w3.org/1999/xlink">
    <title>
        diagramm-logo
    </title>
    <defs>
        <path id="a" d="M.318.756H19.57V26.19H.318z"/>
        <path id="c" d="M0 148.81h280.558V.393H0z"/>
    </defs>
    <g fill="none" fill-rule="evenodd">
        <path fill="#000" d="M127.07 125.342v23.63h7.106v-7.931h6.763v-5.52h-6.763v-4.395h8.39v-5.784z"/>
        <g>
            <path d="M155.475 140.876c0 2.1-.971 3.033-2.612 3.033-1.573 0-2.21-.9-2.21-2.666v-10.3h-6.595v11.433c0 4.333 2.51 6.433 5.859 6.433 2.946 0 4.587-1.267 5.558-3.133v2.7h6.596v-17.434h-6.596v9.934z" fill="#000"/>
            <path d="M176.936 130.475c-2.947 0-4.822 1.402-5.793 3.267v-2.799h-6.595v17.432h6.595v-9.633c0-2.099.971-3.033 2.612-3.033 1.574 0 2.21.9 2.21 2.668v9.998h6.595V136.91c0-4.332-2.31-6.434-5.624-6.434" fill="#000"/>
            <g transform="translate(183.816 122.619)">
                <mask id="b" fill="#fff">
                    <use xlink:href="#a"/>
                </mask>
                <path d="M13.141 17.09c0 2.7-1.071 4.1-3.08 4.1-1.975 0-3.047-1.366-3.047-4.067v-.266c0-2.767 1.038-4.133 3.08-4.133 2.01 0 3.047 1.432 3.047 4.099v.268zm-.167-6.367c-.971-1.766-2.578-2.867-5.357-2.867-3.984 0-7.299 3.035-7.299 9.101v.266c0 6.134 3.382 8.968 7.299 8.968 2.678 0 4.453-1.4 5.357-3.234v2.8h6.596v-25h-6.596v9.966z" fill="#000" mask="url(#b)"/>
            </g>
            <mask id="d" fill="#fff">
                <use xlink:href="#c"/>
            </mask>
            <path d="M9.566 48.012H47.83V9.917H9.566v38.095zM0 57.536h57.396V.393H0v57.143z" fill="#000" mask="url(#d)"/>
            <path fill="#000" mask="url(#d)" d="M0 71.985h43.43L0 110.08v9.524h57.396v-9.524H13.882l43.514-38.095v-9.524H0z"/>
            <path fill="#000" mask="url(#d)" d="M63.388 57.535h57.396v-9.523h-47.83V9.916h47.83V.393H63.388z"/>
            <path fill="#000" mask="url(#d)" d="M72.954 62.461h-9.566v57.143h57.396v-9.524h-47.83z"/>
            <path d="M138.03 87.896c6.362 0 10.916-3.3 11.352-9.566h-7.568c-.268 2.4-1.808 3.5-3.95 3.5-2.947 0-4.554-2.167-4.554-6.167v-.267c0-4.034 1.64-6.166 4.42-6.166 2.142 0 3.28 1.2 3.515 3.432h7.836c-.537-6.467-4.957-9.4-11.385-9.4-7.098 0-12.388 4.8-12.388 12.166v.268c0 7.3 4.051 12.2 12.723 12.2" fill="#000" mask="url(#d)"/>
            <path d="M166.79 78.563c0-2.667 1.071-4.135 3.047-4.135 2.01 0 3.113 1.334 3.113 4.135v.267c0 2.665-1.07 4.066-3.08 4.066-2.042 0-3.08-1.366-3.08-4.066v-.267zm.169 6.399c.902 1.701 2.745 2.934 5.323 2.934 4.017 0 7.365-2.9 7.365-9v-.266c0-6.1-3.348-9.068-7.333-9.068-2.678 0-4.386 1.368-5.355 3V70.03h-6.597v23.233h6.597v-8.301z" fill="#000" mask="url(#d)"/>
            <path d="M187.74 77.83c0-2.102.971-3.034 2.613-3.034 1.572 0 2.208.9 2.208 2.667v10h6.596V75.996c0-4.334-2.31-6.433-5.625-6.433-2.946 0-4.821 1.399-5.792 3.266V62.463h-6.596v25h6.596v-9.634z" fill="#000" mask="url(#d)"/>
            <path d="M209.704 73.763c1.773 0 2.645 1.133 2.745 3h-5.76c.27-2 1.406-3 3.015-3m0 14.133c5.59 0 8.603-2.3 9.14-6.333h-6.16c-.235 1.033-.871 1.866-2.747 1.866-1.874 0-3.113-1.1-3.28-3.234h12.152v-1.599c0-6.267-4.185-9.067-9.105-9.067-5.357 0-9.71 3.467-9.71 9.167v.267c0 5.766 4.118 8.933 9.71 8.933" fill="#000" mask="url(#d)"/>
            <path d="M226.343 79.43c0-2.534 1.975-3.734 5.624-3.5v-6.134c-2.645-.034-4.52 1.066-5.624 3.766V70.03h-6.596v17.434h6.596v-8.034z" fill="#000" mask="url(#d)"/>
            <path d="M138.734 103.972v.132c0 1.768-1.005 2.668-3.047 2.668h-1.574v-5.366h1.607c2.01 0 3.014.7 3.014 2.566zm-12.187-8.2v23.834h7.566v-7.768h2.31c6.262 0 9.51-2.8 9.51-7.766v-.133c0-5.1-2.98-8.168-9.844-8.168h-9.542z" fill="#000" mask="url(#d)"/>
            <path d="M146.836 102.173v17.433h6.597v-8.033c0-2.534 1.974-3.734 5.625-3.502v-6.132c-2.646-.034-4.521 1.066-5.625 3.767v-3.533h-6.597z" fill="#000" mask="url(#d)"/>
            <path fill="#000" mask="url(#d)" d="M160.363 119.606h6.562v-17.433h-6.562z"/>
            <path d="M186.98 119.605V108.14c0-4.334-2.312-6.434-5.625-6.434-2.946 0-4.821 1.4-5.792 3.267v-2.8h-6.596v17.433h6.596v-9.633c0-2.1.97-3.033 2.611-3.033 1.574 0 2.209.9 2.209 2.668v9.998h6.597z" fill="#000" mask="url(#d)"/>
            <path d="M198.262 115.198c-2.142 0-3.046-1.433-3.046-4.267v-.267c0-2.667.97-4 2.946-4 1.607 0 2.176.867 2.41 2.3h6.194c-.368-5.466-4.385-7.333-8.771-7.333-5.257 0-9.474 3.234-9.474 9.167v.266c0 5.966 4.084 8.9 9.306 8.9 5.893 0 8.873-2.866 9.04-7.4h-5.926c-.168 1.7-1.172 2.634-2.679 2.634" fill="#000" mask="url(#d)"/>
            <path fill="#000" mask="url(#d)" d="M207.837 119.531h6.562v-17.433h-6.562z"/>
            <path d="M229.03 110.898c0 2.665-1.07 4.066-3.078 4.066-2.043 0-3.08-1.365-3.08-4.066v-.267c0-2.667 1.07-4.133 3.045-4.133 2.009 0 3.114 1.333 3.114 4.133v.267zm-.634-9.267c-2.679 0-4.386 1.367-5.359 2.999v-2.532h-6.594v23.233h6.594v-8.301c.904 1.701 2.746 2.934 5.324 2.934 4.019 0 7.367-2.898 7.367-9v-.266c0-6.1-3.348-9.067-7.332-9.067z" fill="#000" mask="url(#d)"/>
            <path fill="#000" mask="url(#d)" d="M236.9 119.531h6.56v-25h-6.56z"/>
            <path d="M254.275 105.831c1.775 0 2.645 1.134 2.746 3.001h-5.759c.268-2 1.406-3 3.013-3m.235 9.666c-1.875 0-3.114-1.1-3.281-3.235h12.153v-1.598c0-6.267-4.185-9.067-9.107-9.067-5.355 0-9.709 3.467-9.709 9.167v.266c0 5.767 4.118 8.934 9.71 8.934 5.59 0 8.604-2.3 9.14-6.334h-6.16c-.235 1.034-.87 1.867-2.746 1.867" fill="#000" mask="url(#d)"/>
            <path d="M273.157 108.264c-1.974-.233-2.745-.533-2.745-1.333 0-.667.536-1.2 1.741-1.2s1.741.6 1.975 1.633h5.928c-.437-4.266-3.417-5.766-8.003-5.766-4.286 0-7.8 1.9-7.8 5.899 0 3.734 2.074 5 6.795 5.534 2.379.3 3.08.7 3.08 1.467 0 .766-.535 1.232-1.841 1.232-1.505 0-1.942-.632-2.176-1.799h-6.027c.1 3.967 3.115 6.033 8.238 6.033 4.954 0 8.235-1.833 8.235-6.133 0-3.767-2.343-4.934-7.4-5.567" fill="#000" mask="url(#d)"/>
            <path fill="#000" mask="url(#d)" d="M207.887 100.317h6.563v-5.411h-6.563z"/>
            <path fill="#000" mask="url(#d)" d="M160.412 100.392h6.562V94.98h-6.562z"/>
            <path fill="#000" mask="url(#d)" d="M151.4 87.46h6.561V70.028H151.4z"/>
            <path fill="#000" mask="url(#d)" d="M151.4 68.246h6.561v-5.41H151.4z"/>
        </g>
    </g>
</svg>
