<svg width="101" height="32" viewBox="0 0 101 32" xmlns="http://www.w3.org/2000/svg">
    <title>
        Group 2 Copy
    </title>
    <g fill="#FFF" fill-rule="evenodd">
        <path d="M4.504.773c.448.414.672.982.672 1.703 0 .72-.224 1.288-.672 1.702-.448.415-1.095.622-1.942.622H.966v3.049H0V.15h2.562c.847 0 1.494.208 1.942.622zM.966 3.935h1.522c.56 0 .982-.128 1.266-.384.283-.256.425-.614.425-1.075 0-.462-.142-.82-.425-1.076-.284-.256-.706-.384-1.266-.384H.966v2.92zM11.896.486c.511.325.905.788 1.182 1.39.276.601.414 1.31.414 2.124 0 .814-.138 1.523-.414 2.124-.277.602-.67 1.065-1.182 1.39-.51.324-1.11.486-1.795.486-.686 0-1.285-.162-1.796-.486-.51-.325-.904-.788-1.18-1.39-.277-.601-.416-1.31-.416-2.124 0-.814.139-1.523.415-2.124.277-.602.67-1.065 1.181-1.39C8.816.162 9.415 0 10.101 0c.686 0 1.284.162 1.795.486zm-3.06.8c-.36.253-.637.611-.83 1.076-.192.465-.289 1.011-.289 1.638s.097 1.173.29 1.638c.192.465.468.823.829 1.076.36.252.782.378 1.265.378a2.15 2.15 0 0 0 1.265-.378c.36-.253.637-.611.83-1.076.192-.465.288-1.011.288-1.638s-.096-1.173-.288-1.638c-.193-.465-.47-.823-.83-1.076a2.15 2.15 0 0 0-1.265-.378 2.15 2.15 0 0 0-1.265.378zM20.979 7.85l-.788-3.363a169.645 169.645 0 0 1-.777-3.448h-.02c-.232 1.08-.49 2.23-.778 3.448L17.83 7.85h-1.386L14.7.15h.966l.703 3.114c.161.728.396 1.82.704 3.276l.073.345h.021c.315-1.455.592-2.666.83-3.632l.735-3.103h1.344l.735 3.103c.238.966.514 2.177.83 3.632h.02c.217-1.088.476-2.295.777-3.621L23.142.15h.966L22.365 7.85h-1.386zm5.775-6.811V3.47h3.633v.876h-3.633v2.616h3.969v.887h-4.935V.15h4.82v.887h-3.854zM37.306.692c.434.36.651.876.651 1.546 0 .49-.13.908-.389 1.254s-.605.57-1.039.67v.022c.273.086.486.23.64.432.154.202.315.54.483 1.016l.767 2.217h-1.05l-.683-2.033c-.154-.461-.334-.778-.54-.951-.207-.173-.51-.26-.908-.26h-1.313V7.85h-.966V.15h2.373c.882 0 1.54.18 1.974.54zm-3.381 3.07h1.397c.56 0 .974-.131 1.244-.394s.404-.615.404-1.054c0-.873-.57-1.309-1.711-1.309h-1.334v2.757zm7.402-2.724V3.47h3.633v.876h-3.633v2.616h3.97v.887H40.36V.15h4.82v.887h-3.854zm11.35.113c.673.667 1.009 1.617 1.009 2.849 0 1.232-.336 2.182-1.008 2.849-.672.666-1.628 1-2.867 1h-2.278V.15h2.278c1.24 0 2.195.334 2.867 1zM48.5 6.962H49.8c.93 0 1.641-.252 2.131-.757.49-.504.735-1.24.735-2.205 0-.966-.245-1.7-.735-2.205-.49-.505-1.2-.757-2.131-.757h-1.302v5.924zM63.225.676c.423.35.635.827.635 1.432 0 .433-.105.802-.315 1.108-.21.307-.518.535-.924.687v.021c.448.108.795.32 1.04.633s.367.704.367 1.173c0 .648-.22 1.164-.661 1.546-.441.382-1.05.573-1.827.573h-2.636V.15h2.436c.833 0 1.461.175 1.885.525zM59.87 3.514h1.397c1.092 0 1.638-.422 1.638-1.265 0-.418-.128-.732-.384-.94-.255-.21-.66-.314-1.212-.314H59.87v2.519zm0 3.491h1.533c1.085 0 1.628-.443 1.628-1.33 0-.886-.588-1.33-1.764-1.33H59.87v2.66zm8.432.844h-.966v-3.19L64.637.151h1.124l.913 1.59c.357.62.735 1.297 1.134 2.032h.021c.399-.735.777-1.413 1.134-2.032l.924-1.59H71L68.302 4.66v3.19z"/>
        <path d="M54.303 23.966c0-4.634-2.905-6.461-5.55-6.461-2.646 0-5.552 1.827-5.552 6.46 0 4.634 2.906 6.461 5.551 6.461 2.646 0 5.55-1.827 5.55-6.46zm-5.55-7.962c4.618-.022 7.133 3.636 7.133 7.961 0 4.326-2.515 7.984-7.134 7.962-4.618.022-7.133-3.636-7.133-7.961 0-4.326 2.515-7.984 7.133-7.962z"/>
        <path d="M31.601 30.06h-4.336V17.793H31.6c2.559 0 5.768 1.48 5.768 6.134 0 4.655-3.21 6.135-5.768 6.135m0-13.705h-5.897v15.14H31.6c4.532 0 7.329-3.245 7.329-7.57s-2.797-7.57-7.329-7.57"/>
        <path d="M67.006 30.06v1.436H59.08v-15.14h1.56v13.705z"/>
        <path d="M81.875 31.496h1.561v-15.14h-1.56z"/>
        <path d="M100.582 16.356v15.14h-1.733l-9.48-13.109v13.11h-1.432v-15.14h1.728l9.486 13.071V16.356z"/>
        <path d="M71.459 17.792v4.829h6.526v1.436H71.46v7.44h-1.561v-15.14h8.716v1.435z"/>
        <path d="M14.88 23.963c0 5.634-3.67 7.964-7.866 7.964l-5.032-.002c-.66 0-1.982-.498-1.982-1.99 0-1.326.934-1.629 1.817-2.82.759-1.024 1.075-1.993 1.075-3.152 0-1.158-.316-2.126-1.075-3.15C.934 19.62 0 19.317 0 17.992c0-1.493 1.321-1.99 1.982-1.99L7.014 16c4.196 0 7.866 2.33 7.866 7.963"/>
    </g>
</svg>
