<svg width="71" height="11" viewBox="0 0 71 11" xmlns="http://www.w3.org/2000/svg">
    <title>
        dolfin
    </title>
    <g fill="#FFF" fill-rule="evenodd">
        <path d="M37.89 5.712c0 3.077-2.036 4.291-3.89 4.291s-3.89-1.214-3.89-4.291c0-3.078 2.036-4.292 3.89-4.292s3.89 1.214 3.89 4.292M34 .423C30.763.41 29 2.84 29 5.712c0 2.872 1.762 5.302 5 5.288 3.236.014 5-2.416 5-5.288 0-2.873-1.764-5.303-5-5.289"/>
        <path d="M21.972 9.126H19.07v-7.79h2.9c1.757 0 3.958.938 3.958 3.895 0 2.956-2.201 3.895-3.957 3.895m0-8.703H18v9.615h3.972c3.11 0 5.028-2.061 5.028-4.807C27 2.485 25.081.423 21.972.423"/>
        <path d="M48 9.126v.912h-6V.423h1.181v8.703z"/>
        <path d="M58 10.038h.974V.423H58z"/>
        <path d="M71 .423v9.615h-1.233l-6.749-8.324v8.324H62V.423h1.23l6.752 8.302V.423z"/>
        <path d="M50.075 1.335v3.066h4.492v.913h-4.492v4.724H49V.423h6v.912z"/>
        <path d="M11 5.711C11 9.451 8.287 11 5.185 11l-3.72-.002C.977 10.998 0 10.668 0 9.676c0-.88.69-1.08 1.343-1.872.56-.68.795-1.323.795-2.093 0-.769-.234-1.412-.795-2.093C.691 2.828 0 2.627 0 1.747 0 .755.977.424 1.465.424h3.72C8.287.423 11 1.97 11 5.71"/>
    </g>
</svg>
