<?xml version="1.0" encoding="UTF-8"?><!DOCTYPE svg PUBLIC "-//W3C//DTD SVG 1.1//EN" "http://www.w3.org/Graphics/SVG/1.1/DTD/svg11.dtd"><svg xmlns="http://www.w3.org/2000/svg"><symbol id="icon-arr-bottom" viewBox="0 0 16.5 10.1">
    <title>
        Scroll Arrow
    </title>
    <path d="M8.2 10.1L0 1.4 1.5 0l6.7 7.2L15 0l1.5 1.4z"/>
</symbol><symbol id="icon-close" viewBox="0 0 21.29 21.26">
    <title>
        close
    </title>
    <g opacity=".5">
        <path d="M-.006 1.41L1.41-.006 21.25 19.837l-1.414 1.414z"/>
        <path d="M.026 19.85L19.867.007l1.414 1.414L1.44 21.264z"/>
    </g>
</symbol><symbol id="icon-cogs" viewBox="0 0 37 34">
    <title>
        cogs
    </title>
    <path d="M26.208 14.906v-3.54c-1.803-.644-2.94-.823-3.515-2.21-.575-1.392.108-2.337.925-4.058l-2.494-2.502c-1.704.812-2.656 1.506-4.048.928-1.388-.577-1.568-1.725-2.207-3.524h-3.53c-.635 1.79-.817 2.947-2.206 3.524H9.13c-1.387.578-2.328-.109-4.047-.928L2.592 5.098c.812 1.716 1.5 2.665.925 4.057C2.938 10.548 1.785 10.73 0 11.367v3.537c1.78.637 2.94.821 3.515 2.212.58 1.403-.125 2.37-.925 4.057l2.494 2.502c1.707-.812 2.658-1.505 4.047-.927h.002c1.387.576 1.57 1.727 2.206 3.523h3.529c.635-1.79.817-2.944 2.215-3.527h.002c1.378-.574 2.314.11 4.037.93l2.495-2.501c-.81-1.711-1.502-2.663-.927-4.057.577-1.39 1.736-1.575 3.518-2.21zm-13.104 2.61a4.374 4.374 0 0 1-4.367-4.38 4.374 4.374 0 0 1 4.367-4.38 4.374 4.374 0 0 1 4.368 4.38 4.374 4.374 0 0 1-4.368 4.38zM37 24.015V22.35c-.848-.303-1.383-.388-1.654-1.04-.272-.655.05-1.099.435-1.91l-1.175-1.178c-.802.384-1.25.708-1.904.438-.654-.27-.739-.812-1.04-1.658h-1.658c-.3.842-.386 1.386-1.04 1.658-.653.272-1.095-.051-1.903-.438L25.886 19.4c.382.808.706 1.255.435 1.91-.271.656-.814.74-1.654 1.04v1.665c.838.298 1.383.386 1.654 1.04.273.66-.059 1.116-.435 1.91l1.175 1.178c.803-.384 1.252-.708 1.904-.438.654.27.738.813 1.039 1.659h1.659c.299-.843.385-1.387 1.042-1.66h.001c.65-.27 1.089.052 1.9.439l1.175-1.178c-.381-.805-.707-1.255-.435-1.909.271-.653.815-.743 1.654-1.041zm-6.167 1.227a2.058 2.058 0 0 1-2.055-2.06c0-1.138.92-2.06 2.055-2.06 1.135 0 2.055.922 2.055 2.06 0 1.137-.92 2.06-2.055 2.06zm-6.166 4.746v-1.249c-.636-.227-1.038-.29-1.241-.78-.204-.49.037-.824.326-1.433l-.881-.882c-.6.287-.936.531-1.428.327-.492-.204-.553-.609-.78-1.244h-1.244c-.225.632-.29 1.04-.78 1.244-.489.204-.822-.037-1.428-.327l-.882.882c.289.608.53.941.327 1.433-.203.491-.61.555-1.24.78v1.249c.628.224 1.037.29 1.24.78.205.495-.043.838-.327 1.433l.882.883c.601-.288.938-.532 1.428-.328.49.204.553.61.78 1.244h1.244c.225-.632.29-1.04.782-1.244h.001c.486-.203.816.039 1.425.33l.881-.883c-.286-.605-.53-.942-.326-1.433.203-.491.612-.558 1.24-.782zm-4.625.921c-.851 0-1.542-.69-1.542-1.545s.69-1.546 1.542-1.546c.85 0 1.541.691 1.541 1.546 0 .854-.69 1.545-1.541 1.545z" fill-rule="nonzero" opacity=".6"/>
</symbol><symbol id="icon-coins" viewBox="0 0 30 36">
    <title>
        coins
    </title>
    <path d="M15 13.5c8.017 0 15-3.023 15-6.75C30 3.022 23.017 0 15 0 6.984 0 0 3.022 0 6.75c0 3.727 6.984 6.75 15 6.75zm0 18c5.674 0 11.562-1.453 15-4.204v1.954C30 32.977 23.017 36 15 36c-8.016 0-15-3.023-15-6.75v-1.956C3.438 30.047 9.325 31.5 15 31.5zm0-15c5.674 0 11.562-1.454 15-4.204v1.954C30 17.977 23.017 21 15 21c-8.016 0-15-3.023-15-6.75v-1.954c3.438 2.75 9.325 4.204 15 4.204zm0 7.5c5.674 0 11.562-1.453 15-4.204v1.954c0 3.727-6.983 6.75-15 6.75-8.016 0-15-3.023-15-6.75v-1.956C3.438 22.547 9.325 24 15 24z" fill-rule="nonzero" opacity=".6"/>
</symbol><symbol id="icon-down" viewBox="0 0 15.1 8.6">
    <title>
        Scroll Arrow
    </title>
    <path d="M7.5 8.6L0 1.1 1.1 0l6.4 6.5L14 0l1.1 1.1z"/>
</symbol><symbol id="icon-eye" viewBox="0 0 48 28">
    <title>
        eye
    </title>
    <path d="M24.03 4c9.502 0 16.126 6.024 19.008 9.272C40.236 16.946 33.612 24 24.03 24c-8.84 0-15.86-7.072-18.956-10.814C8.06 9.892 14.708 4 24.03 4zm0-4C8.892 0 0 13.102 0 13.102S9.67 28 24.03 28C39.496 28 48 13.102 48 13.102S39.418 0 24.03 0zM24 14l-6.72-4.342a8 8 0 1 0 2.654-2.55L24 14z" fill-rule="nonzero" opacity=".6"/>
</symbol><symbol id="icon-facebook" viewBox="0 0 10 19">
    <title>
        facebook
    </title>
    <path d="M9.766.157v2.946H8.014c-.64 0-1.071.134-1.295.402-.223.268-.335.67-.335 1.205v2.11h3.27l-.435 3.303H6.384v8.471H2.97v-8.47H.123V6.82H2.97V4.387c0-1.384.387-2.457 1.161-3.22C4.904.404 5.934.023 7.222.023c1.093 0 1.941.045 2.544.134z" fill-rule="evenodd"/>
</symbol><symbol id="icon-in" viewBox="0 0 16 15">
    <title>
        Shape
    </title>
    <path d="M13 15V8.5S12.563 7 11 7C9.438 7 9 8.5 9 8.5V15H6V5h3v1s1.053-1.5 3.5-1.5C14.946 4.5 16 6 16 8v7h-3zM2 4A2 2 0 1 1 1.999.001 2 2 0 0 1 2 4zm2 11H0V5.025L4 5v10z" fill-rule="nonzero"/>
</symbol></svg>